<svg width="137" height="15" viewBox="0 0 137 15" fill="none" xmlns="http://www.w3.org/2000/svg">
<path d="M0.485413 14.6974H3.52721V9.26518H11.2355V6.55975H3.52721V3.34618H12.5953V0.490479H0.485413V14.6974Z" fill="white"/>
<path d="M27.2604 2.30844C26.5876 1.67145 25.7645 1.17045 24.827 0.826903C23.8894 0.476201 22.8373 0.304443 21.7136 0.304443C20.5899 0.304443 19.5306 0.483359 18.5931 0.826903C17.6555 1.1776 16.8395 1.67145 16.1596 2.30844C15.4868 2.94543 14.9572 3.71842 14.585 4.60591C14.2129 5.4934 14.0268 6.48108 14.0268 7.5475C14.0268 8.61392 14.2129 9.61593 14.585 10.5106C14.9572 11.4052 15.4868 12.1925 16.1596 12.8367C16.8324 13.4808 17.6483 13.989 18.5931 14.3468C19.5306 14.7047 20.5828 14.8836 21.7207 14.8836C22.8587 14.8836 23.9037 14.7047 24.8413 14.3468C25.7789 13.989 26.6019 13.4808 27.2747 12.8367C27.9475 12.1925 28.4771 11.4052 28.8493 10.5106C29.2215 9.61593 29.4075 8.62107 29.4075 7.5475C29.4075 6.47392 29.2215 5.4934 28.8493 4.60591C28.4771 3.71842 27.9475 2.94543 27.2747 2.30844H27.2675H27.2604ZM21.7064 11.9993C21.0337 11.9993 20.411 11.8919 19.8456 11.6844C19.2801 11.4768 18.7863 11.1762 18.3712 10.7897C17.9632 10.4032 17.634 9.938 17.405 9.39406C17.1759 8.85011 17.0543 8.23459 17.0543 7.5475C17.0543 6.86041 17.1688 6.25204 17.405 5.7081C17.634 5.17131 17.9632 4.71327 18.3712 4.3411C18.7863 3.96893 19.2801 3.67547 19.8456 3.48223C20.411 3.28183 21.0408 3.18164 21.7136 3.18164C22.3864 3.18164 23.009 3.28183 23.5816 3.48223C24.147 3.67547 24.6409 3.96893 25.0488 4.3411C25.4568 4.71327 25.7789 5.17131 26.015 5.7081C26.2512 6.24489 26.3657 6.86041 26.3657 7.5475C26.3657 8.23459 26.2512 8.85011 26.015 9.39406C25.7789 9.938 25.4568 10.4104 25.0417 10.7897C24.6337 11.1762 24.1399 11.4768 23.5744 11.6844C23.009 11.8919 22.3792 11.9993 21.7136 11.9993H21.7064Z" fill="white"/>
<path d="M43.2209 9.47988C43.6074 9.16497 43.9294 8.79994 44.1799 8.39198C44.4376 7.99118 44.6237 7.54029 44.7454 7.06076C44.867 6.58123 44.9243 6.07308 44.9243 5.5506C44.9243 4.77047 44.8026 4.05474 44.5521 3.43207C44.3016 2.80223 43.9223 2.26545 43.4141 1.8217C42.9131 1.38511 42.269 1.05587 41.5103 0.826845C40.7588 0.604972 39.8642 0.490479 38.8407 0.490479H31.977V14.6974H35.0188V10.7682H38.8335L41.3028 14.6974H45.0173L42.0972 10.1741C42.5195 9.98086 42.8988 9.75186 43.228 9.48705L43.2209 9.47988ZM41.7465 5.54344C41.7465 5.90846 41.6892 6.24485 41.5747 6.5383C41.4602 6.83174 41.2884 7.07506 41.0594 7.27546C40.8232 7.48302 40.5298 7.64051 40.1791 7.75502C39.8212 7.86954 39.3918 7.93395 38.9123 7.93395H35.0188V3.31757H38.9123C39.8785 3.31757 40.6014 3.51798 41.0666 3.90446C41.5246 4.29095 41.7465 4.82056 41.7465 5.53628V5.54344Z" fill="white"/>
<path d="M64.263 0.483238L60.6271 9.57285L60.1619 11.1546L59.5535 9.58718L58.2509 6.34496L60.6915 0.476074H57.5352L56.7622 2.78787L55.932 0.476074H52.7757L55.2163 6.34496L53.928 9.53708L53.4413 11.1617L52.8115 9.52275L49.2043 0.483238H45.8833L51.8453 14.6902H54.7225L55.9606 11.8274L56.7336 9.6659L57.5066 11.8345L58.7233 14.6902H61.6077L67.5624 0.483238H64.2415H64.263Z" fill="white"/>
<path d="M96.0551 9.47988C96.4416 9.16497 96.7637 8.79994 97.0142 8.39198C97.2718 7.99118 97.4579 7.54029 97.5796 7.06076C97.7013 6.58123 97.7585 6.07308 97.7585 5.5506C97.7585 4.77047 97.6368 4.05474 97.3863 3.43207C97.1358 2.80223 96.7565 2.26545 96.2484 1.8217C95.7473 1.38511 95.1032 1.05587 94.3446 0.826845C93.593 0.604972 92.6984 0.490479 91.6749 0.490479H84.8112V14.6974H87.853V10.7682H91.6678L94.137 14.6974H97.8516L94.9314 10.1741C95.3537 9.98086 95.733 9.75186 96.0623 9.48705L96.0551 9.47988ZM94.5807 5.54344C94.5807 5.90846 94.5235 6.24485 94.409 6.5383C94.2944 6.83174 94.1227 7.07506 93.8936 7.27546C93.6575 7.48302 93.364 7.64051 93.0133 7.75502C92.6555 7.86954 92.226 7.93395 91.7465 7.93395H87.853V3.31757H91.7465C92.7127 3.31757 93.4356 3.51798 93.9008 3.90446C94.3589 4.29095 94.5807 4.82056 94.5807 5.53628V5.54344Z" fill="white"/>
<path d="M111.887 2.37266C111.193 1.7643 110.305 1.29191 109.246 0.969837C108.201 0.647764 106.948 0.483154 105.531 0.483154H100.536V14.6902H105.553C106.97 14.6973 108.222 14.5184 109.267 14.1605C110.319 13.8026 111.207 13.3017 111.901 12.6647C112.595 12.0277 113.125 11.2547 113.461 10.3815C113.798 9.50836 113.97 8.5493 113.97 7.52583C113.97 6.45225 113.798 5.46455 113.454 4.59853C113.111 3.72535 112.581 2.97385 111.88 2.36549L111.887 2.37266ZM106.19 11.8702H103.577V3.32457H106.19C106.963 3.32457 107.643 3.42476 108.222 3.62516C108.788 3.81841 109.274 4.10468 109.654 4.46254C110.026 4.8204 110.319 5.26415 110.505 5.77231C110.699 6.28763 110.792 6.88885 110.792 7.53299C110.792 8.17714 110.692 8.79978 110.505 9.33657C110.319 9.8662 110.026 10.3243 109.654 10.6965C109.274 11.0686 108.795 11.362 108.222 11.5696C107.643 11.7772 106.963 11.8774 106.197 11.8774L106.19 11.8702Z" fill="white"/>
<path d="M119.652 0.304443H116.596V14.5115H119.652V0.304443Z" fill="white"/>
<path d="M133.48 0.304443V4.68463L125.543 0.304443H122.644V14.5115H125.679V3.82576L133.473 8.09861V14.5115H136.515V0.304443H133.473H133.48Z" fill="white"/>
<path d="M73.6746 0.483154L67.3405 14.6902H70.5613L75.2349 4.06174L80.0517 14.6902H83.2653L76.7379 0.483154H73.6746Z" fill="white"/>
</svg>
